<!-- icon666.com - MILLIONS vector ICONS FREE --><svg xmlns="http://www.w3.org/2000/svg" viewBox="0 0 64 64"><g id="Fundraising"><path d="M39.26,17.4507a1.0007,1.0007,0,0,1-.95-1.3111l3.1025-9.498-4.97,1.8071a13.0171,13.0171,0,0,1-8.8848,0l-4.97-1.8071L25.69,16.14a1,1,0,1,1-1.9.6211l-3.74-11.45a1,1,0,0,1,1.292-1.25l6.8994,2.5087a11.0111,11.0111,0,0,0,7.5176,0L42.6582,4.06a1,1,0,0,1,1.292,1.25l-3.74,11.45A1,1,0,0,1,39.26,17.4507Z"></path><path d="M38,24a1,1,0,0,1-1-1c0-3.86-2.2432-7-5-7s-5,3.14-5,7a1,1,0,0,1-2,0c0-4.9624,3.1406-9,7-9s7,4.0376,7,9A1,1,0,0,1,38,24Z"></path><path d="M32,49.51a.9967.9967,0,0,1-.707-.293l-8.4854-8.4854a6,6,0,0,1,8.4854-8.4848l.707.707.707-.707a6.0074,6.0074,0,0,1,8.4854,0h0a6.0071,6.0071,0,0,1,0,8.4848L32.707,49.2173A.9967.9967,0,0,1,32,49.51ZM27.0508,32.4917a3.9978,3.9978,0,0,0-2.8291,6.8262L32,47.0962l7.7783-7.7783a4.0063,4.0063,0,0,0,0-5.6568h0a4.0069,4.0069,0,0,0-5.6572,0L32.707,35.0752a1,1,0,0,1-1.414,0l-1.4141-1.4141A3.991,3.991,0,0,0,27.0508,32.4917Z"></path><path d="M54,60H10a1,1,0,0,1-1-1V56.8027a4.3591,4.3591,0,0,1,1.9453-3.6347A2.3637,2.3637,0,0,0,12,51.1973V34A20.0008,20.0008,0,0,1,32.7275,14.0127C43.3545,14.3906,52,23.5615,52,34.4556V51.1973a2.3637,2.3637,0,0,0,1.0547,1.9707A4.3591,4.3591,0,0,1,55,56.8027V59A1,1,0,0,1,54,60ZM11,58H53V56.8027a2.3637,2.3637,0,0,0-1.0547-1.9707A4.3591,4.3591,0,0,1,50,51.1973V34.4556c0-9.83-7.78-18.104-17.3428-18.4439A18.0008,18.0008,0,0,0,14,34V51.1973a4.3591,4.3591,0,0,1-1.9453,3.6347A2.3637,2.3637,0,0,0,11,56.8027Z"></path></g></svg>