<!-- icon666.com - MILLIONS vector ICONS FREE --><svg viewBox="0 0 48 48" xmlns="http://www.w3.org/2000/svg"><path d="m6 25.83v13.17h-1a1 1 0 0 0 -1 1v3a1 1 0 0 0 1 1h38a1 1 0 0 0 1-1v-3a1 1 0 0 0 -1-1h-1v-13.17a3.16 3.16 0 0 0 2-2.9 3.06 3.06 0 0 0 -1-2.28l-18.33-16.4a1 1 0 0 0 -1.34 0l-18.33 16.39a3.06 3.06 0 0 0 -1 2.28 3.16 3.16 0 0 0 2 2.9zm36 15.17h-36v1h36zm-2-15.15a3.2 3.2 0 0 1 -1.28-.68l-14.72-13.8-13.61 12.76a15.17 15.17 0 0 1 -2.39 1.72v13.15h7a9.38 9.38 0 0 1 -1.07-.93 10 10 0 0 1 -2.93-7.07 4 4 0 0 1 4-4 10.2 10.2 0 0 1 2 .2v-.2a7 7 0 0 1 14 0v.2a10.2 10.2 0 0 1 2-.2 4 4 0 0 1 4 4 10 10 0 0 1 -2.93 7.07 9.38 9.38 0 0 1 -1.07.93h7zm-13 13.15a8 8 0 0 0 8-8 2 2 0 0 0 -2-2 8 8 0 0 0 -8 8v.59l6.29-6.3a1 1 0 0 1 1.42 1.42l-6.3 6.29zm-4-2a8 8 0 0 0 -8-8 2 2 0 0 0 -2 2 8 8 0 0 0 8 8h.59l-6.3-6.29a1 1 0 0 1 1.42-1.42l6.29 6.3zm6-9.17v-.83a5 5 0 0 0 -10 0v.83a10.17 10.17 0 0 1 3.07 2.1 9.87 9.87 0 0 1 1.93 2.71 9.87 9.87 0 0 1 1.93-2.71 10.17 10.17 0 0 1 3.07-2.1zm-6-.83h2a1 1 0 0 0 0-2h-2a1 1 0 0 0 0 2zm18-3a1 1 0 0 0 .69-.31 1.07 1.07 0 0 0 .31-.76 1 1 0 0 0 -.36-.79l-17.64-15.8-17.64 15.79a1 1 0 0 0 -.36.79 1.07 1.07 0 0 0 .31.76 1 1 0 0 0 .69.32 1.44 1.44 0 0 0 .91-.29l15.41-14.44a1 1 0 0 1 1.36 0l15.41 14.44a1.44 1.44 0 0 0 .91.29z" fill-rule="evenodd"></path></svg>