<!-- icon666.com - MILLIONS vector ICONS FREE --><svg id="Layer_1" enable-background="new 0 0 512 512" viewBox="0 0 512 512" xmlns="http://www.w3.org/2000/svg"><path d="m362.998 200.998c0-58.999-47.999-106.998-106.997-106.998s-106.997 47.999-106.997 106.997c0 27.474 13.286 50.867 26.283 70.127l60.57 89.756c-16.918.798-32.533 2.593-45.231 5.256-14.702 3.083-34.248 8.83-34.248 23.068s19.546 19.984 34.248 23.067c17.615 3.694 40.832 5.729 65.375 5.729s47.76-2.035 65.375-5.729c14.703-3.083 34.249-8.83 34.249-23.067 0-14.238-19.546-19.984-34.249-23.068-12.697-2.663-28.313-4.458-45.231-5.256l60.571-89.755c12.996-19.259 26.282-42.652 26.282-70.127zm-32.757 188.206c-11.483 4.035-37.012 8.796-74.24 8.796s-62.756-4.761-74.239-8.796c11.483-4.036 37.012-8.797 74.239-8.797 37.228 0 62.757 4.761 74.24 8.797zm-74.24-34.227-64.136-95.04c-11.874-17.596-22.861-36.914-22.861-58.939 0-47.97 39.026-86.997 86.997-86.997s86.997 39.027 86.997 86.997c0 22.027-10.987 41.345-22.86 58.94zm28.999-204.206c-27.696-15.99-63.235-6.467-79.227 21.228-15.99 27.696-6.467 63.237 21.229 79.227 9.111 5.26 19.067 7.759 28.901 7.759 20.059 0 39.596-10.403 50.325-28.988 7.746-13.416 9.804-29.046 5.794-44.01s-13.606-27.471-27.022-35.216zm3.908 69.226c-10.477 18.145-33.76 24.385-51.906 13.909-18.145-10.476-24.384-33.761-13.908-51.907 10.477-18.146 33.765-24.383 51.906-13.908 8.79 5.075 15.077 13.269 17.704 23.072s1.279 20.044-3.796 28.834zm-32.907-219.997c-141.159 0-256.001 114.841-256.001 256s114.842 256 256.001 256 256-114.841 256-256-114.841-256-256-256zm0 492c-130.132 0-236.001-105.87-236.001-236s105.869-236 236.001-236c130.131 0 236 105.869 236 236s-105.869 236-236 236z"></path></svg>