<!-- icon666.com - MILLIONS vector ICONS FREE --><svg version="1.1" id="Capa_1" xmlns="http://www.w3.org/2000/svg" xmlns:xlink="http://www.w3.org/1999/xlink" x="0px" y="0px" viewBox="0 0 490.667 490.667" style="enable-background:new 0 0 490.667 490.667;" xml:space="preserve"><g><g><g><path d="M423.424,109.931c-0.043-0.043-0.043-0.085-0.085-0.128l-1.579-1.579L316.672,3.136 c-1.344-1.344-3.029-2.112-4.821-2.581c-0.448-0.128-0.853-0.213-1.323-0.256C310.037,0.213,309.611,0,309.12,0H74.453 c-5.888,0-10.667,4.779-10.667,10.667V480c0,5.888,4.779,10.667,10.667,10.667h341.333c5.888,0,10.667-4.779,10.667-10.667 V119.445c0.149-0.704,0.427-1.365,0.427-2.112C426.88,114.325,425.408,111.851,423.424,109.931z M319.787,36.416l70.251,70.251 h-70.251V36.416z M405.12,469.333h-320v-448h213.333v96c0,5.888,4.779,10.667,10.667,10.667h96V469.333z"></path><path d="M208.384,343.125l-50.709-33.792l50.688-33.792c4.907-3.264,6.229-9.877,2.965-14.784 c-3.264-4.907-9.877-6.229-14.784-2.965l-64,42.667c-2.987,1.984-4.757,5.312-4.757,8.875c0,3.563,1.771,6.891,4.757,8.875 l64,42.667c1.813,1.216,3.861,1.792,5.909,1.792c3.456,0,6.827-1.664,8.896-4.757 C214.613,353.003,213.291,346.389,208.384,343.125z"></path><path d="M278.912,260.757c-3.264,4.907-1.941,11.52,2.965,14.784l50.688,33.792l-50.688,33.792 c-4.907,3.264-6.229,9.877-2.965,14.784c2.048,3.093,5.44,4.757,8.875,4.757c2.027,0,4.075-0.576,5.909-1.792l64-42.667 c2.987-1.984,4.757-5.312,4.757-8.875c0-3.563-1.771-6.891-4.757-8.875l-64-42.667 C288.768,254.507,282.155,255.851,278.912,260.757z"></path><path d="M269.035,213.653c-5.76-1.493-11.499,2.048-12.928,7.765L213.44,392.085c-1.429,5.717,2.048,11.499,7.765,12.928 c0.853,0.213,1.728,0.32,2.581,0.32c4.779,0,9.131-3.221,10.325-8.085l42.667-170.667 C278.229,220.885,274.752,215.083,269.035,213.653z"></path></g></g></g></svg>