<!-- icon666.com - MILLIONS vector ICONS FREE --><svg id="_x30_9_Share" viewBox="0 0 64 64" xmlns="http://www.w3.org/2000/svg"><path d="m41.786 45.8c-.446.456-.85.952-1.207 1.481l-16.4-10.545c1.526-2.947 1.537-6.449.029-9.406l17.051-9.762c.182.212.327.445.527.645 4.171 4.303 11.041 4.409 15.344.238s4.409-11.041.238-15.344-11.041-4.409-15.344-.238c-3.346 3.244-4.247 8.263-2.238 12.469l-17.053 9.762c-.181-.21-.329-.442-.527-.64-4.166-4.163-10.917-4.16-15.08.005s-4.16 10.917.005 15.08c4.164 4.161 10.911 4.161 15.075 0 .185-.184.321-.4.491-.6l16.656 10.7c-1.998 5.507.847 11.591 6.354 13.588 5.507 1.998 11.591-.847 13.588-6.354s-.847-11.591-6.354-13.588c-3.889-1.411-8.244-.431-11.155 2.509zm1.886-40.791c3.124-3.124 8.19-3.124 11.314 0s3.124 8.19 0 11.314-8.189 3.124-11.313 0c-3.124-3.112-3.135-8.167-.023-11.291.007-.008.014-.015.022-.023zm-34.672 32.65c-3.12-3.128-3.114-8.193.014-11.314s8.193-3.114 11.314.014c1.494 1.497 2.334 3.525 2.336 5.64.004 1.587-.469 3.139-1.356 4.455l-.008.007v.006c-.288.427-.616.825-.979 1.19-3.128 3.121-8.192 3.122-11.321.002zm45.99 21.335c-3.124 3.124-8.19 3.124-11.314 0s-3.124-8.19 0-11.314 8.189-3.124 11.313 0c3.125 3.124 3.125 8.189.001 11.314.001 0 .001 0 0 0z"></path></svg>